# xmcd
#
# Track frame offsets: 
#        150
#        25596
#        54043
#        76862
#        98133
#        131325
#        151122
#        161760
#        179559
#        205622
#        237651
#        257657
#
# Disc length: 3808 seconds
#
# Revision: 0
# Processed by: cddbd v1.5.2PL0 Copyright (c) Steve Scherf et al.
# Submitted via: ExactAudioCopyFreeDBPlugin 1.0
#
DISCID=8a0ede0c
DTITLE=Dave Steffen Band - Flying Potion
DYEAR=1997
DGENRE=Blues
TTITLE0=way of the witch
TTITLE1=you're the star
TTITLE2=Flying Potion
TTITLE3=heading to the top
TTITLE4=doin' it to me right
TTITLE5=falling for you
TTITLE6=rambunctious
TTITLE7=sweet valentine
TTITLE8=let's go
TTITLE9=Help me
TTITLE10=don't stop
TTITLE11=down the road
EXTD=
EXTT0=
EXTT1=
EXTT2=
EXTT3=
EXTT4=
EXTT5=
EXTT6=
EXTT7=
EXTT8=
EXTT9=
EXTT10=
EXTT11=
PLAYORDER=
